ISO-10303-21;
HEADER;
/* Generated by software containing ST-Developer
 * from STEP Tools, Inc. (www.steptools.com) 
 */
/* OPTION: using custom renumber hook */

FILE_DESCRIPTION(
/* description */ ('STEP AP242 Edition 2',
'CAx-IF Rec.Pracs.---Representation and Presentation of Product Manufa
cturing Information (PMI)---4.0---2014-10-13',
'CAx-IF Rec.Pracs.---3D Tessellated Geometry---0.4---2014-09-14','2;1',
'CAx-IF Rec.Pracs.---User Defined Attributes---1.5---2016-08-15'),
/* implementation_level */ '2;1');

FILE_NAME(
/* name */ 'NylonBall - NylonBall',
/* time_stamp */ '2026-08-11T22:58:20Z',
/* author */ (''),
/* organization */ (''),
/* preprocessor_version */ 'ST-DEVELOPER v20',
/* originating_system */ 'ONSHAPE BY PTC INC, 1.219',
/* authorisation */ '  ');

FILE_SCHEMA (('AP242_MANAGED_MODEL_BASED_3D_ENGINEERING_MIM_LF { 1 0 10303 442 3 1 4 }'));
ENDSEC;

DATA;
#10=SHAPE_REPRESENTATION_RELATIONSHIP('','',#88,#11);
#11=ADVANCED_BREP_SHAPE_REPRESENTATION('',(#86),#143);
#12=CYLINDRICAL_SURFACE('',#96,0.0065);
#13=CYLINDRICAL_SURFACE('',#100,0.0075);
#14=SPHERICAL_SURFACE('',#93,0.00479593023255814);
#15=OVER_RIDING_STYLED_ITEM('',(#73),#65,#71);
#16=ORIENTED_EDGE('',*,*,#26,.T.);
#17=ORIENTED_EDGE('',*,*,#27,.F.);
#18=ORIENTED_EDGE('',*,*,#26,.F.);
#19=ORIENTED_EDGE('',*,*,#28,.T.);
#20=ORIENTED_EDGE('',*,*,#29,.T.);
#21=ORIENTED_EDGE('',*,*,#28,.F.);
#22=ORIENTED_EDGE('',*,*,#30,.T.);
#23=ORIENTED_EDGE('',*,*,#29,.F.);
#24=ORIENTED_EDGE('',*,*,#27,.T.);
#25=ORIENTED_EDGE('',*,*,#30,.F.);
#26=EDGE_CURVE('',#31,#31,#36,.T.);
#27=EDGE_CURVE('',#32,#32,#37,.T.);
#28=EDGE_CURVE('',#33,#33,#38,.T.);
#29=EDGE_CURVE('',#34,#34,#39,.T.);
#30=EDGE_CURVE('',#35,#35,#40,.T.);
#31=VERTEX_POINT('',#128);
#32=VERTEX_POINT('',#130);
#33=VERTEX_POINT('',#134);
#34=VERTEX_POINT('',#137);
#35=VERTEX_POINT('',#140);
#36=CIRCLE('',#91,0.004);
#37=CIRCLE('',#92,0.0075);
#38=CIRCLE('',#95,0.0065);
#39=CIRCLE('',#97,0.0065);
#40=CIRCLE('',#99,0.0075);
#41=EDGE_LOOP('',(#16));
#42=EDGE_LOOP('',(#17));
#43=EDGE_LOOP('',(#18));
#44=EDGE_LOOP('',(#19));
#45=EDGE_LOOP('',(#20));
#46=EDGE_LOOP('',(#21));
#47=EDGE_LOOP('',(#22));
#48=EDGE_LOOP('',(#23));
#49=EDGE_LOOP('',(#24));
#50=EDGE_LOOP('',(#25));
#51=FACE_BOUND('',#41,.T.);
#52=FACE_BOUND('',#42,.T.);
#53=FACE_BOUND('',#43,.T.);
#54=FACE_BOUND('',#44,.T.);
#55=FACE_BOUND('',#45,.T.);
#56=FACE_BOUND('',#46,.T.);
#57=FACE_BOUND('',#47,.T.);
#58=FACE_BOUND('',#48,.T.);
#59=FACE_BOUND('',#49,.T.);
#60=FACE_BOUND('',#50,.T.);
#61=PLANE('',#90);
#62=PLANE('',#94);
#63=PLANE('',#98);
#64=ADVANCED_FACE('',(#51,#52),#61,.T.);
#65=ADVANCED_FACE('Face appearance 1',(#53),#14,.T.);
#66=ADVANCED_FACE('',(#54),#62,.T.);
#67=ADVANCED_FACE('',(#55,#56),#12,.T.);
#68=ADVANCED_FACE('',(#57,#58),#63,.T.);
#69=ADVANCED_FACE('',(#59,#60),#13,.T.);
#70=CLOSED_SHELL('',(#64,#65,#66,#67,#68,#69));
#71=STYLED_ITEM('',(#72),#86);
#72=PRESENTATION_STYLE_ASSIGNMENT((#74));
#73=PRESENTATION_STYLE_ASSIGNMENT((#75));
#74=SURFACE_STYLE_USAGE(.BOTH.,#76);
#75=SURFACE_STYLE_USAGE(.BOTH.,#77);
#76=SURFACE_SIDE_STYLE('',(#78));
#77=SURFACE_SIDE_STYLE('',(#79));
#78=SURFACE_STYLE_FILL_AREA(#80);
#79=SURFACE_STYLE_FILL_AREA(#81);
#80=FILL_AREA_STYLE('',(#82));
#81=FILL_AREA_STYLE('',(#83));
#82=FILL_AREA_STYLE_COLOUR('',#84);
#83=FILL_AREA_STYLE_COLOUR('',#85);
#84=COLOUR_RGB('',0.647058823529412,0.647058823529412,0.647058823529412);
#85=COLOUR_RGB('',0.917647058823529,0.917647058823529,0.917647058823529);
#86=MANIFOLD_SOLID_BREP('NylonBall',#70);
#87=SHAPE_DEFINITION_REPRESENTATION(#148,#88);
#88=SHAPE_REPRESENTATION('NylonBall',(#89),#143);
#89=AXIS2_PLACEMENT_3D('',#125,#101,#102);
#90=AXIS2_PLACEMENT_3D('',#126,#103,#104);
#91=AXIS2_PLACEMENT_3D('',#127,#105,#106);
#92=AXIS2_PLACEMENT_3D('',#129,#107,#108);
#93=AXIS2_PLACEMENT_3D('',#131,#109,#110);
#94=AXIS2_PLACEMENT_3D('',#132,#111,#112);
#95=AXIS2_PLACEMENT_3D('',#133,#113,#114);
#96=AXIS2_PLACEMENT_3D('',#135,#115,#116);
#97=AXIS2_PLACEMENT_3D('',#136,#117,#118);
#98=AXIS2_PLACEMENT_3D('',#138,#119,#120);
#99=AXIS2_PLACEMENT_3D('',#139,#121,#122);
#100=AXIS2_PLACEMENT_3D('',#141,#123,#124);
#101=DIRECTION('',(0.,0.,1.));
#102=DIRECTION('',(1.,0.,0.));
#103=DIRECTION('',(-1.95032745450797E-16,0.,1.));
#104=DIRECTION('',(1.,0.,1.95032745450797E-16));
#105=DIRECTION('',(1.95032745450797E-16,0.,-1.));
#106=DIRECTION('',(-1.,0.,-1.95032745450797E-16));
#107=DIRECTION('',(1.95032745450797E-16,0.,-1.));
#108=DIRECTION('',(-1.,0.,-1.95032745450797E-16));
#109=DIRECTION('',(1.95032745450797E-16,0.,-1.));
#110=DIRECTION('',(1.,0.,1.95032745450797E-16));
#111=DIRECTION('',(1.95032745450797E-16,0.,-1.));
#112=DIRECTION('',(-1.,0.,-1.95032745450797E-16));
#113=DIRECTION('',(1.95032745450797E-16,0.,-1.));
#114=DIRECTION('',(-1.,0.,-1.95032745450797E-16));
#115=DIRECTION('',(1.95032745450797E-16,0.,-1.));
#116=DIRECTION('',(-1.,0.,-1.95032745450797E-16));
#117=DIRECTION('',(1.95032745450797E-16,0.,-1.));
#118=DIRECTION('',(-1.,0.,-1.95032745450797E-16));
#119=DIRECTION('',(1.95032745450797E-16,0.,-1.));
#120=DIRECTION('',(-1.,0.,-1.95032745450797E-16));
#121=DIRECTION('',(1.95032745450797E-16,0.,-1.));
#122=DIRECTION('',(-1.,0.,-1.95032745450797E-16));
#123=DIRECTION('',(1.95032745450797E-16,0.,-1.));
#124=DIRECTION('',(-1.,0.,-1.95032745450797E-16));
#125=CARTESIAN_POINT('',(0.,0.,0.));
#126=CARTESIAN_POINT('',(0.00575,0.,0.00825));
#127=CARTESIAN_POINT('',(1.25703326007732E-19,0.,0.00825));
#128=CARTESIAN_POINT('',(-0.004,0.,0.00825));
#129=CARTESIAN_POINT('',(1.25703326007732E-19,0.,0.00825));
#130=CARTESIAN_POINT('',(-0.0075,0.,0.00825));
#131=CARTESIAN_POINT('',(7.20553199632663E-19,0.,0.00560406976744186));
#132=CARTESIAN_POINT('',(0.00325,0.,-8.45819705294266E-35));
#133=CARTESIAN_POINT('',(1.7347234759768E-18,0.,-8.67361737988404E-19));
#134=CARTESIAN_POINT('',(-0.0065,0.,-2.13507458341858E-18));
#135=CARTESIAN_POINT('',(7.20553199632663E-19,0.,0.0052));
#136=CARTESIAN_POINT('',(3.69494257821229E-19,0.,0.007));
#137=CARTESIAN_POINT('',(-0.0065,0.,0.007));
#138=CARTESIAN_POINT('',(0.007,0.,0.007));
#139=CARTESIAN_POINT('',(3.69494257821229E-19,0.,0.007));
#140=CARTESIAN_POINT('',(-0.0075,0.,0.007));
#141=CARTESIAN_POINT('',(7.20553199632663E-19,0.,0.0052));
#142=MECHANICAL_DESIGN_GEOMETRIC_PRESENTATION_REPRESENTATION('',(#71,#15),
#143);
#143=(
GEOMETRIC_REPRESENTATION_CONTEXT(3)
GLOBAL_UNCERTAINTY_ASSIGNED_CONTEXT((#144))
GLOBAL_UNIT_ASSIGNED_CONTEXT((#147,#146,#145))
REPRESENTATION_CONTEXT('NylonBall','TOP_LEVEL_ASSEMBLY_PART')
);
#144=UNCERTAINTY_MEASURE_WITH_UNIT(LENGTH_MEASURE(1.E-8),#147,
'DISTANCE_ACCURACY_VALUE','Maximum Tolerance applied to model');
#145=(
NAMED_UNIT(*)
SI_UNIT($,.STERADIAN.)
SOLID_ANGLE_UNIT()
);
#146=(
NAMED_UNIT(*)
PLANE_ANGLE_UNIT()
SI_UNIT($,.RADIAN.)
);
#147=(
LENGTH_UNIT()
NAMED_UNIT(*)
SI_UNIT($,.METRE.)
);
#148=PRODUCT_DEFINITION_SHAPE('','',#149);
#149=PRODUCT_DEFINITION('','',#151,#150);
#150=PRODUCT_DEFINITION_CONTEXT('',#157,'design');
#151=PRODUCT_DEFINITION_FORMATION_WITH_SPECIFIED_SOURCE('','',#153,
 .NOT_KNOWN.);
#152=PRODUCT_RELATED_PRODUCT_CATEGORY('','',(#153));
#153=PRODUCT('NylonBall','NylonBall','NylonBall',(#155));
#154=PRODUCT_CATEGORY('','');
#155=PRODUCT_CONTEXT('',#157,'mechanical');
#156=APPLICATION_PROTOCOL_DEFINITION('international standard',
'ap242_managed_model_based_3d_engineering',2020,#157);
#157=APPLICATION_CONTEXT('managed model based 3d engineering');
ENDSEC;
END-ISO-10303-21;
